<mxfile host="app.diagrams.net" modified="2022-05-14T02:37:56.210Z" agent="5.0 (Windows NT 10.0; Win64; x64) AppleWebKit/537.36 (KHTML, like Gecko) Chrome/101.0.4951.54 Safari/537.36 Edg/101.0.1210.39" etag="6jFRyADlRsI_iiF3tqED" version="18.0.3" type="github">
  <diagram id="wu9k4MUqra_iFmOoi5Xg" name="Page-1">
    <mxGraphModel dx="797" dy="615" grid="1" gridSize="10" guides="1" tooltips="1" connect="1" arrows="1" fold="1" page="1" pageScale="1" pageWidth="827" pageHeight="1169" math="0" shadow="0">
      <root>
        <mxCell id="0" />
        <mxCell id="1" parent="0" />
        <mxCell id="7j87BDj8bhFzXN303Ghl-3" value="" style="edgeStyle=orthogonalEdgeStyle;rounded=0;orthogonalLoop=1;jettySize=auto;html=1;fontFamily=Lucida Console;fontSize=16;" edge="1" parent="1" source="7j87BDj8bhFzXN303Ghl-1" target="7j87BDj8bhFzXN303Ghl-2">
          <mxGeometry relative="1" as="geometry" />
        </mxCell>
        <mxCell id="7j87BDj8bhFzXN303Ghl-1" value="encmain()" style="rounded=0;whiteSpace=wrap;html=1;fontFamily=Lucida Console;fontSize=16;" vertex="1" parent="1">
          <mxGeometry x="120" y="150" width="120" height="60" as="geometry" />
        </mxCell>
        <mxCell id="7j87BDj8bhFzXN303Ghl-2" value="pcEncApp-&amp;gt;createLib" style="whiteSpace=wrap;html=1;fontSize=16;fontFamily=Lucida Console;rounded=0;" vertex="1" parent="1">
          <mxGeometry x="80" y="290" width="200" height="60" as="geometry" />
        </mxCell>
      </root>
    </mxGraphModel>
  </diagram>
</mxfile>
